<?xml version="1.0" encoding="UTF-8"?>
<svg id="Warstwa_1" xmlns="http://www.w3.org/2000/svg" version="1.1" viewBox="0 0 595.3 195.8">
  <!-- Generator: Adobe Illustrator 30.1.0, SVG Export Plug-In . SVG Version: 2.1.1 Build 136)  -->
  <defs>
    <style>
      .st0 {
        fill-rule: evenodd;
      }

      .st0, .st1 {
        fill: #fff;
      }
    </style>
  </defs>
  <path class="st1" d="M395.9,127.2l-5.9-15.8h-51.2l-5.9,16.1c-2.3,6.3-4.3,10.5-6,12.7-1.7,2.3-4.3,3.4-8.2,3.4s-6-1.2-8.5-3.6c-2.3-2.3-3.6-4.9-3.6-7.9s.3-3.6.8-5.4c.6-1.9,1.5-4.3,2.8-7.6l32.2-81.5c.9-2.5,2-5.3,3.4-8.5,1.2-3.2,2.6-6,4-8.2,1.5-2.2,3.4-3.9,5.7-5.3,2.5-1.4,5.4-2,8.8-2s6.5.6,9,2c2.3,1.4,4.2,3.1,5.7,5.3,1.4,2,2.6,4.3,3.6,6.8,1.1,2.3,2.3,5.6,3.9,9.6l32.8,81.2c2.6,6,3.9,10.5,3.9,13.4s-1.2,5.6-3.6,7.9c-2.5,2.5-5.4,3.7-8.8,3.7s-3.7-.3-5.1-1.1c-1.5-.8-2.6-1.7-3.7-2.9-.9-1.2-2-3.1-3.1-5.6-1.1-2.6-2-4.8-2.9-6.8h0ZM345.6,92.3h37.4l-18.9-51.6-18.6,51.6h0Z"/>
  <path class="st1" d="M244.1,99.3h-7v31.5c0,4-.9,7.1-2.8,9.1-1.9,1.9-4.3,2.9-7.1,2.9s-5.7-1.1-7.4-3.1c-1.7-2-2.6-5.1-2.6-9V55.4c0-4.3.9-7.4,2.9-9.3,1.9-2,4.9-2.9,9.3-2.9h32.3c4.3,0,8.2.2,11.4.6,3.1.3,6,1.1,8.5,2.3,3.1,1.2,5.7,3.1,8.2,5.6,2.3,2.3,4.2,5.1,5.3,8.3,1.2,3.2,1.9,6.5,1.9,10.2,0,7.3-2,13.1-6.2,17.5-4,4.3-10.4,7.4-18.7,9.3,3.6,1.9,7,4.6,10.1,8.3,3.2,3.6,6.2,7.4,8.7,11.6,2.5,4.2,4.5,7.9,5.9,11.1,1.4,3.4,2.2,5.6,2.2,6.8s-.5,2.6-1.2,3.9c-.9,1.4-2,2.3-3.4,3.1-1.4.6-3.1,1.1-4.9,1.1s-4.2-.6-5.7-1.5c-1.4-1.1-2.8-2.5-3.9-4-1.1-1.5-2.5-4-4.5-7.1l-7.9-13.1c-2.9-4.9-5.4-8.7-7.7-11.1-2.2-2.6-4.5-4.3-6.8-5.3-2.3-.9-5.3-1.4-8.7-1.4h0ZM255.4,58.1h-18.2v26.9h17.6c4.8,0,8.8-.5,12.1-1.2,3.2-.8,5.7-2.2,7.6-4.2,1.7-2,2.5-4.8,2.5-8.2s-.6-5.1-2-7.3c-1.4-2-3.2-3.6-5.7-4.6-2.3-.9-7-1.4-13.8-1.4h0Z"/>
  <path class="st1" d="M152.1,41.6c10.1,0,18.9,2,26.1,6,7.3,4.2,12.8,10,16.5,17.6,3.7,7.6,5.6,16.5,5.6,26.7s-.9,14.5-3.1,20.7c-2,6.2-5.1,11.6-9.1,16.1-4.2,4.5-9.1,8-15.2,10.5-6,2.3-12.8,3.6-20.6,3.6s-14.5-1.2-20.6-3.7c-6-2.5-11.1-6-15.2-10.5-4-4.5-7.1-9.9-9.3-16.2-2-6.3-3.1-13.1-3.1-20.6s1.1-14.4,3.2-20.7c2.2-6.2,5.4-11.6,9.4-15.9,4.2-4.5,9.1-7.9,15-10.2,5.9-2.3,12.5-3.4,20.1-3.4h0ZM180.2,91.8c0-7.1-1.2-13.3-3.4-18.6-2.5-5.3-5.7-9.3-10-12.1-4.2-2.6-9.1-4-14.7-4s-7.7.8-11,2.3c-3.4,1.5-6.3,3.7-8.8,6.5-2.3,2.8-4.3,6.5-5.7,11-1.4,4.3-2,9.4-2,14.8s.6,10.7,2,15.2c1.4,4.5,3.4,8.3,6,11.3,2.5,2.9,5.4,5.1,8.8,6.6,3.2,1.4,7,2.2,10.8,2.2s9.7-1.2,14.1-3.9c4.2-2.5,7.6-6.3,10.2-11.8,2.5-5.3,3.7-11.7,3.7-19.6h0Z"/>
  <path class="st1" d="M209.1,35.6H41.4v32h41.9c3.9,0,6.8.9,8.7,2.6,2,1.9,2.9,4.2,2.9,7s-.9,5.3-2.9,7c-1.9,1.9-4.8,2.6-8.7,2.6h-41.9v41.4c0,5.3-1.2,9.1-3.6,11.6-2.3,2.6-5.4,3.9-9.1,3.9s-6.8-1.2-9.1-3.9c-2.5-2.6-3.6-6.5-3.6-11.6V31.4c0-3.6.5-6.5,1.5-8.8,1.1-2.3,2.8-4,5.1-5.1,2.3-1.1,5.3-1.5,8.8-1.5h197.3l-19.6,19.6h0Z"/>
  <path class="st1" d="M316,35.6h-100.2l19.6-19.6h80.5c4,0,7,.8,9,2.6,2,1.9,2.9,4.2,2.9,7.1s-.9,5.4-2.9,7.1c-2,1.9-4.9,2.8-9,2.8h0Z"/>
  <path class="st0" d="M490.3,171.1l-7.6-13.1c-4.2-7.2-1.7-16.5,5.5-20.7l39.4-22.8c7.2-4.2,9.7-13.4,5.5-20.6l-7.6-13.1c-4.2-7.2-1.7-16.5,5.5-20.6h0c7.2-4.2,16.4-1.7,20.6,5.5l22.7,39.4c4.2,7.2,1.7,16.4-5.5,20.6l-13.2,7.7-65.5,37.8h0Z"/>
  <path class="st0" d="M522.6,19.5l7.6,13.1c4.2,7.2,1.7,16.5-5.5,20.7l-39.4,22.8c-7.2,4.2-9.7,13.4-5.5,20.6l7.6,13.1c4.2,7.2,1.7,16.5-5.5,20.6h0c-7.2,4.2-16.4,1.7-20.6-5.5l-22.7-39.4c-4.2-7.2-1.7-16.4,5.5-20.6l13.2-7.7,65.5-37.8h0Z"/>
  <g>
    <rect class="st1" x="231.3" y="161.8" width="5" height="13.6"/>
    <path class="st1" d="M236,156.4c-.6-.4-1.4-.6-2.2-.6s-1.6.2-2.2.6c-.9.6-1.1,1.3-1.1,1.8s.2,1.2,1.1,1.8c.6.4,1.4.6,2.2.6s1.6-.2,2.2-.6c.9-.6,1.1-1.3,1.1-1.8s-.2-1.2-1.1-1.8Z"/>
    <path class="st1" d="M187.8,163.5c-1-.6-2.1-1.1-3.4-1.5-2.5-.7-5.7-.7-8.2,0-1.3.4-2.4.8-3.4,1.5-1,.6-1.8,1.4-2.3,2.2-.6.9-.9,1.9-.9,2.9s.3,2,.9,2.9c.6.9,1.4,1.6,2.3,2.2.9.6,2.1,1.1,3.4,1.4,1.3.3,2.6.5,4.1.5s2.8-.2,4.1-.5c1.3-.4,2.4-.8,3.4-1.4,1-.6,1.8-1.4,2.3-2.2.6-.9.9-1.9.9-2.9s-.3-2-.9-2.9c-.6-.8-1.3-1.6-2.3-2.2ZM185.8,168.6c0,.5-.1.9-.3,1.3-.2.4-.6.8-1,1.1-.5.3-1,.6-1.7.8-1.4.4-3.3.4-4.7,0-.7-.2-1.2-.4-1.7-.8-.4-.3-.8-.7-1-1.1-.2-.4-.3-.8-.3-1.3s.1-.9.3-1.3c.2-.4.6-.8,1-1.1.5-.3,1-.6,1.7-.8.7-.2,1.5-.3,2.4-.3s1.7,0,2.4.3c.7.2,1.2.4,1.7.8.4.3.8.7,1,1.1.2.4.3.8.3,1.3Z"/>
    <rect class="st1" x="208" y="154.6" width="5" height="20.8"/>
    <path class="st1" d="M151,163.5c-.9-.6-2-1.1-3.2-1.5-2.3-.6-5.3-.7-8,0-.7.2-1.4.5-1.9.8v-1.1h-5v20.8h5v-8.2c.5.3,1.1.6,1.8.8,1.2.4,2.6.6,4,.6s2.9-.2,4.1-.5c1.2-.3,2.3-.8,3.2-1.4.9-.6,1.6-1.4,2.1-2.3.5-.9.8-1.9.8-2.9s-.3-2-.8-2.9c-.5-.9-1.2-1.6-2.1-2.3ZM148.6,168.6c0,.5-.1.9-.3,1.3-.2.4-.6.8-1,1.1-.4.3-1,.6-1.7.8-1.4.4-3.3.4-4.7,0-.7-.2-1.2-.4-1.7-.8-.4-.3-.8-.7-1-1.1-.2-.4-.3-.8-.3-1.3s.1-.9.3-1.3c.2-.4.6-.8,1-1.1.5-.3,1-.6,1.7-.8.7-.2,1.5-.3,2.4-.3s1.7,0,2.4.3c.7.2,1.2.4,1.7.8.4.3.8.7,1,1.1.2.4.3.8.3,1.3Z"/>
    <path class="st1" d="M386.4,156.4c-.6-.4-1.4-.6-2.2-.6s-1.6.2-2.2.6c-.9.6-1.1,1.3-1.1,1.8s.2,1.2,1.1,1.8c.6.4,1.4.6,2.2.6s1.6-.2,2.2-.6c.9-.6,1.1-1.3,1.1-1.8s-.2-1.2-1.1-1.8Z"/>
    <rect class="st1" x="381.7" y="161.8" width="5" height="13.6"/>
    <path class="st1" d="M421.5,174.6c0-.3,0-.6-.1-1,0-.3,0-.7,0-1.1v-6.2c0-.7-.2-1.3-.6-1.9-.4-.6-.9-1.1-1.7-1.5-.7-.4-1.6-.7-2.6-1-2-.5-5-.5-7.8.1-1.4.3-2.6.8-3.7,1.4l-1,.6,3.5,2.3.4-.2c.3-.2.6-.3,1-.5.3-.2.7-.3,1-.4.4-.1.8-.2,1.3-.3.5,0,1-.1,1.7-.1s1.3,0,1.8.2c.5.1.9.3,1.2.5.3.2.5.4.6.6,0,.1.1.2.1.3h-1.8c-1.4,0-2.8,0-4.1.2-1.3.1-2.4.4-3.4.8-1,.4-1.9.9-2.5,1.5-.7.7-1,1.5-1,2.5s.2,1.4.7,2c.4.5,1,1,1.7,1.3.6.3,1.4.6,2.3.8.8.2,1.7.2,2.6.2,1.5,0,2.8-.2,4-.5.7-.2,1.4-.5,2-.9,0,.2,0,.3,0,.5v.7h4.8v-.9ZM415.7,171.4c-.3.3-.8.5-1.4.7-.6.2-1.4.3-2.3.3s-2-.1-2.6-.4c-.5-.2-.6-.5-.6-.8s0-.3.4-.5c.4-.3.9-.5,1.5-.6.7-.2,1.5-.3,2.3-.3.9,0,1.7,0,2.5,0h1.1c0,.3,0,.6-.2,1-.1.3-.4.6-.7.9Z"/>
    <path class="st1" d="M300.1,161.7c-.6.1-1.2.3-1.7.5-.5.2-.9.4-1.3.7v-1h-5v13.6h5v-6.8c0-1.1.3-1.8,1.1-2.3.8-.5,2-.8,3.5-.8s.5,0,.8,0c.3,0,.5,0,.8.1h.8c0,.1.3-3.8.3-3.8h-.6c-1-.4-2.4-.4-3.6-.1Z"/>
    <path class="st1" d="M269.3,162.9c-.6-.3-1.2-.6-1.9-.8-2.7-.8-5.7-.7-8,0-1.2.3-2.3.8-3.2,1.5-.9.6-1.6,1.4-2.1,2.3-.5.9-.8,1.8-.8,2.9s.3,2,.8,2.9c.5.8,1.3,1.6,2.2,2.2.9.6,2,1.1,3.2,1.4,2.4.6,5.4.7,7.9,0,.7-.2,1.4-.5,1.9-.9v.3c0,.4,0,.8-.3,1.2-.2.4-.4.7-.8,1-.4.3-1,.6-1.8.8-.8.2-1.8.3-3.1.3s-2.4-.2-3.4-.5c-1-.3-1.9-.8-2.8-1.4l-.5-.3-3.7,3,.9.6c1.4.8,2.9,1.4,4.5,1.8,1.5.3,3.2.5,5.1.5s3-.2,4.3-.5c1.3-.3,2.5-.8,3.4-1.4,1-.6,1.8-1.3,2.3-2.2.6-.9.8-1.9.8-2.9v-12.7h-5v1.1ZM269.3,168.6c0,1-.4,1.7-1.3,2.3-1,.7-2.3,1-4.1,1s-3.1-.3-4.1-1c-.9-.6-1.3-1.4-1.3-2.3s.1-.9.3-1.3c.2-.4.6-.8,1-1.1.5-.3,1-.6,1.7-.8.7-.2,1.5-.3,2.4-.3s1.7,0,2.4.3c.7.2,1.2.4,1.7.8.4.3.8.7,1,1.1.2.4.3.8.3,1.3Z"/>
    <path class="st1" d="M337.1,173.6c0-.3,0-.7,0-1.1v-6.2c0-.7-.2-1.3-.6-1.9-.4-.6-.9-1.1-1.7-1.5-.7-.4-1.6-.7-2.6-1-2-.5-5-.5-7.8.1-1.4.3-2.6.8-3.7,1.4l-1,.6,3.5,2.3.4-.2c.3-.2.6-.3,1-.5.3-.2.7-.3,1-.4.4-.1.8-.2,1.3-.3.5,0,1-.1,1.7-.1s1.3,0,1.8.2c.5.1.9.3,1.2.5.3.2.5.4.6.6,0,.1.1.2.1.3h-1.8c-1.4,0-2.8,0-4.1.2-1.3.1-2.5.4-3.4.8-1,.4-1.9.9-2.5,1.5-.7.7-1,1.5-1,2.5s.2,1.4.7,2c.4.5,1,1,1.6,1.3.6.3,1.4.6,2.3.8.8.2,1.7.2,2.6.2,1.5,0,2.8-.2,4-.5.7-.2,1.4-.5,2-.9,0,.2,0,.3,0,.5v.7h4.8v-.9c-.2-.3-.2-.6-.3-1ZM331.4,171.4c-.3.3-.8.5-1.4.7-.6.2-1.4.3-2.3.3s-2-.1-2.6-.4c-.5-.2-.6-.5-.6-.8s0-.3.4-.5c.4-.3.9-.5,1.5-.6.7-.2,1.4-.3,2.3-.3.9,0,1.7,0,2.5,0h1.1c0,.3,0,.6-.2,1-.1.3-.4.6-.7.9Z"/>
    <path class="st1" d="M364.3,154.4c-3.2-.1-5.4.3-6.7,1.3-1.1.9-1.7,2.3-1.7,4.2v2h-4v3.5h4v10.1h5v-10.1h4.2v-3.5h-4.2v-2c0-.4,0-.7,0-1,0-.2.1-.4.2-.5.1-.1.3-.3.6-.3.3-.1.8-.2,1.3-.2s.7,0,.9,0c.3,0,.6,0,.9.2l.8.2.7-3.6h-.8c-.5-.2-1-.3-1.5-.3Z"/>
  </g>
</svg>